<svg width="174" height="59" viewBox="0 0 174 59" fill="none" xmlns="http://www.w3.org/2000/svg">
<path d="M149.12 38.7195C149.12 38.7195 153.812 41.4492 156.089 38.0473C157.762 35.5508 153.839 27.7458 151.631 23.7815C150.89 22.451 149.161 20.8598 147.803 20.1739L139.793 16.1411C138.435 15.4552 136.322 14.1247 135.678 12.7529C135.033 11.3675 134.827 9.41967 136.597 7.21122C140.108 2.86288 147.817 5.37312 148.901 5.78463C149.696 6.08641 157.117 9.69402 161.082 11.6144C162.44 12.2728 163.592 14.0423 163.647 15.5512L164.045 27.8144C164.099 29.3232 165.361 30.5441 166.884 30.5303L169.6 30.5029C171.109 30.4892 172.343 31.71 172.343 33.2189V42.1899C172.343 42.1899 172.097 51.2295 162.467 51.641C153.729 52.0251 57.7916 51.7096 40.2611 51.641C38.7522 51.641 36.2968 51.8193 34.788 51.8605C32.4286 51.9154 29.0816 51.6273 27.0927 49.8715C25.9541 48.8702 25.6524 46.3599 25.5563 44.851C25.4603 43.493 25.282 41.9293 24.9116 40.8456C24.1298 38.5549 21.0297 37.4163 18.5195 36.3327C16.0092 35.249 -0.986323 27.3754 1.1947 16.6623C3.37573 5.94924 12.5251 1.12081 21.5647 1.01107C28.7799 0.928767 46.2967 1.32656 53.0729 1.50489C54.5818 1.54604 56.9686 2.09472 57.9974 3.21953C58.8478 4.15229 59.6023 5.48286 59.5063 7.26609C59.2868 11.1755 55.5969 16.1959 50.9742 17.8146C46.3378 19.4332 29.4932 18.3495 27.5728 18.761C25.6524 19.1863 20.8788 21.189 21.5509 25.2081C22.127 28.6785 37.4902 37.1009 44.39 40.2832C45.7617 40.9142 48.1484 41.3532 49.6573 41.3532H64.4032C64.4032 41.3532 68.1755 41.024 67.9149 37.334C67.7777 35.3725 67.8189 32.9446 67.8737 31.1202C67.9286 29.6113 68.7242 27.3891 69.6158 26.1683L84.1422 6.37447C84.1422 6.37447 86.4879 3.61733 90.507 4.61868C94.5261 5.62003 97.6262 7.63645 97.6262 7.63645L118.216 19.8858L149.12 38.7469V38.7195Z" stroke="#EB6737" stroke-width="2" stroke-miterlimit="10"/>
<path d="M127.102 54.1828L123.193 54.2354L123.246 58.1444L127.155 58.0918L127.102 54.1828Z" fill="#232426"/>
<path d="M126.991 45.4835L123.082 45.5347L123.133 49.4437L127.042 49.3925L126.991 45.4835Z" fill="#232426"/>
<path d="M127.02 47.65L123.111 47.7012L123.163 51.6102L127.072 51.5591L127.02 47.65Z" fill="#232426"/>
<path d="M127.049 49.8307L123.14 49.8818L123.191 53.7909L127.1 53.7397L127.049 49.8307Z" fill="#232426"/>
<path d="M127.067 52.0063L123.158 52.0562L123.208 55.9652L127.117 55.9154L127.067 52.0063Z" fill="#232426"/>
<path d="M124.805 45.4904L120.896 45.543L120.948 49.452L124.857 49.3995L124.805 45.4904Z" fill="#232426"/>
<path d="M124.832 47.6728L120.923 47.7227L120.973 51.6317L124.882 51.5819L124.832 47.6728Z" fill="#232426"/>
<path d="M124.864 49.8518L120.955 49.9043L121.008 53.8133L124.917 53.7608L124.864 49.8518Z" fill="#232426"/>
<path d="M124.883 52.0396L120.974 52.0908L121.025 55.9999L124.934 55.9487L124.883 52.0396Z" fill="#232426"/>
<path d="M124.912 54.2208L121.003 54.272L121.054 58.181L124.963 58.1298L124.912 54.2208Z" fill="#232426"/>
<path d="M126.237 55.1548L124.056 55.1841L124.085 57.3649L126.266 57.3356L126.237 55.1548Z" fill="#232426"/>
<path d="M126.128 46.3771L123.947 46.4053L123.975 48.5861L126.156 48.5579L126.128 46.3771Z" fill="#232426"/>
<path d="M126.153 48.6008L123.972 48.6274L123.998 50.8083L126.179 50.7817L126.153 48.6008Z" fill="white"/>
<path d="M126.178 50.7803L123.997 50.8096L124.026 52.9904L126.207 52.9611L126.178 50.7803Z" fill="#232426"/>
<path d="M126.206 52.9626L124.025 52.9893L124.052 55.1701L126.233 55.1435L126.206 52.9626Z" fill="white"/>
<path d="M123.947 46.4328L121.767 46.4609L121.795 48.6418L123.976 48.6136L123.947 46.4328Z" fill="white"/>
<path d="M123.972 48.6145L121.791 48.6411L121.818 50.822L123.999 50.7953L123.972 48.6145Z" fill="#232426"/>
<path d="M124.004 50.7663L121.823 50.7944L121.851 52.9753L124.032 52.9471L124.004 50.7663Z" fill="white"/>
<path d="M124.032 52.9464L121.852 52.9746L121.88 55.1555L124.061 55.1273L124.032 52.9464Z" fill="#232426"/>
<path d="M124.06 55.1271L121.879 55.1553L121.907 57.3361L124.088 57.3079L124.06 55.1271Z" fill="white"/>
</svg>
